<?xml version="1.0" standalone="no"?><!DOCTYPE svg PUBLIC "-//W3C//DTD SVG 1.1//EN" "http://www.w3.org/Graphics/SVG/1.1/DTD/svg11.dtd"><svg t="1732610688669" class="icon" viewBox="0 0 1024 1024" version="1.1" xmlns="http://www.w3.org/2000/svg" p-id="7732" xmlns:xlink="http://www.w3.org/1999/xlink" width="200" height="200"><path d="M895 440.9c-17.21-28.12-47-45.69-77.6-46.6l-189.71-0.93a354.21 354.21 0 0 0 13.72-175.73l-3.52-15.54c-10.08-44.44-48.5-75.58-93.51-75.58-53 0-96 43.75-96 97.6a83.22 83.22 0 0 0 0.39 8.74c-2.59 95.45-115.73 194-154.18 194h-0.06l-140.94 0.08c-18.42 0-33.39 15.28-33.39 34l-0.34 400.58c0 19 16.18 32.85 36.46 33.39l122.19-0.22 4.67 0.87 4.11-0.59 465 0.19a96.83 96.83 0 0 0 45.8-15.18c14.83-9.67 26.77-23.27 32.19-35.25L836 835c32-77.46 71.15-314.7 72.73-324.72l0.62-9.61A99.06 99.06 0 0 0 895 440.9z m-42.51 59.92c-0.38 2.31-39.58 240.5-67.28 308.27l-3.6 5.81a40.41 40.41 0 0 1-14.25 16.21 38.54 38.54 0 0 1-17 6.09L310.2 837l-57 0.08-76.29 0.2 0.3-352.24 76-0.1 57-3.08C385.36 467 502.52 350.31 505.7 230l-0.34-5.91c0-21.88 17.5-39.72 39-39.72a38.94 38.94 0 0 1 38 30.75l3.2 13.76a299.36 299.36 0 0 1 4.15 49.46 295.09 295.09 0 0 1-16.11 96.42l-26.22 76.35 259.62 0.09 6.13 0.63a41.11 41.11 0 0 1 33.57 19.69c4.47 7.37 6.51 15.93 5.82 29.3z" fill="#1E7FFE" p-id="7733"></path><path d="M310.2 481.88v355.14l-57 0.08V484.96l57-3.08z" fill="#F4B426" p-id="7734"></path></svg>