<?xml version="1.0" standalone="no"?><!DOCTYPE svg PUBLIC "-//W3C//DTD SVG 1.1//EN" "http://www.w3.org/Graphics/SVG/1.1/DTD/svg11.dtd"><svg t="1732944697235" class="icon" viewBox="0 0 1024 1024" version="1.1" xmlns="http://www.w3.org/2000/svg" p-id="4169" xmlns:xlink="http://www.w3.org/1999/xlink" width="200" height="200"><path d="M511.829108 840.005452c-28.185946 0-55.664787-2.549056-82.380242-6.973832L236.356103 950.199157 236.356103 755.139599c-100.673887-70.680782-165.284417-179.067328-165.284417-300.796764 0-212.992999 197.334367-385.6575 440.757422-385.6575 243.425102 0 440.757422 172.664501 440.757422 385.6575C952.58653 667.340951 755.25421 840.005452 511.829108 840.005452zM511.829108 123.780141c-212.996069 0-385.662617 148.001799-385.662617 330.562694 0 112.01826 65.166185 210.844056 164.600849 270.629697l-1.738597 127.778198 129.680525-77.948303c29.873378 6.363941 60.94914 10.110265 93.119841 10.110265 212.996069 0 385.662617-147.998729 385.662617-330.569858C897.491725 271.780917 724.825177 123.780141 511.829108 123.780141zM732.207307 509.439688c-30.426987 0-55.094806-24.664749-55.094806-55.096852 0-30.426987 24.667819-55.089689 55.094806-55.089689 30.429033 0 55.094806 24.662703 55.094806 55.089689C787.302113 484.774939 762.637364 509.439688 732.207307 509.439688zM511.829108 509.439688c-30.426987 0-55.094806-24.664749-55.094806-55.096852 0-30.426987 24.667819-55.089689 55.094806-55.089689 30.429033 0 55.094806 24.662703 55.094806 55.089689C566.923914 484.774939 542.258141 509.439688 511.829108 509.439688zM291.449885 509.439688c-30.426987 0-55.094806-24.664749-55.094806-55.096852 0-30.426987 24.667819-55.089689 55.094806-55.089689 30.429033 0 55.094806 24.662703 55.094806 55.089689C346.544691 484.774939 321.879941 509.439688 291.449885 509.439688z" fill="#CCCCCC" p-id="4170"></path></svg>